<?xml version="1.0" encoding="UTF-8" standalone="no"?>
<!-- Created with Inkscape (http://www.inkscape.org/) -->
<svg xmlns:svg="http://www.w3.org/2000/svg" xmlns="http://www.w3.org/2000/svg" xmlns:dc="http://purl.org/dc/elements/1.1/" xmlns:cc="http://web.resource.org/cc/" xmlns:rdf="http://www.w3.org/1999/02/22-rdf-syntax-ns#" version="1.0" width="309.81799" height="310.991" viewBox="0 0 309.818 310.991" id="Layer_1" xml:space="preserve"><defs id="defs28"/>


<g id="g5">
	<path d="M 147.686,303.741 L 147.686,271.81 L 147.686,271.81 C 151.826,271.846 155.966,272.998 160.538,275.41 C 165.038,277.679 169.683,282.322 174.471,285.887 C 179.115,289.45 184.659,294.599 188.187,296.615 C 191.535,298.559 193.623,297.876 194.847,297.336 C 196.071,296.688 196.286,294.995 195.494,292.548 L 195.494,292.548 C 200.679,296.363 206.87,299.64 214.358,302.808 C 221.81,305.904 234.914,310.079 240.062,310.908 C 244.958,311.484 243.77,308.244 244.129,306.877 C 244.489,305.473 241.069,303.061 242.222,302.557 C 243.373,302.053 247.081,302.701 250.574,303.529 C 254.03,304.25 258.135,306.338 262.346,306.878 C 266.306,307.237 272.426,307.346 274.585,306.373 C 276.602,305.329 275.773,302.737 275.018,301.369 C 274.154,299.966 272.534,298.813 269.87,298.057 L 269.87,298.057 C 275.126,297.337 280.166,296.221 285.53,294.709 C 290.75,293.124 298.814,290.713 301.37,288.732 C 303.854,286.536 304.61,284.52 300.29,282.54 C 295.646,280.597 278.475,279.192 274.586,277.068 C 270.771,274.764 276.351,272.1 277.574,269.22 C 278.762,266.196 282.759,261.444 281.642,259.68 C 280.454,257.951 275.774,259.14 270.518,258.96 C 265.01,258.636 254.138,258.995 249.709,258.239 C 245.39,257.411 244.921,255.792 244.562,254.208 C 244.094,252.479 248.198,249.06 247.154,248.231 C 245.93,247.332 243.014,248.015 237.722,249.168 C 232.285,250.212 220.658,253.668 215.618,254.676 C 210.686,255.575 209.03,255.396 208.13,254.676 C 207.158,253.812 210.074,250.644 209.643,249.888 C 208.958,249.06 208.382,249.06 204.71,249.888 C 200.931,250.68 193.334,254.243 187.754,254.892 C 182.066,255.396 173.139,254.496 171.267,253.704 C 169.502,252.805 174.002,251.473 176.847,250.141 C 179.403,248.773 182.498,246.109 187.538,245.605 C 192.578,245.029 202.118,246.325 207.267,246.577 C 212.235,246.649 215.259,246.937 217.995,246.325 C 220.659,245.533 221.019,243.878 223.791,242.762 C 226.527,241.718 232.827,241.285 234.483,239.665 C 235.995,237.937 235.671,235.418 233.223,232.249 L 233.223,232.249 C 237.867,233.546 242.403,233.581 247.37,232.754 C 252.194,231.781 257.378,227.894 262.347,226.777 C 267.206,225.625 272.319,226.237 276.71,225.841 C 280.958,225.301 287.798,225.229 288.086,223.681 C 288.194,221.917 281.391,218.209 278.223,216.049 C 275.019,213.817 269.691,213.025 269.439,211.045 C 269.151,209.028 272.823,205.933 276.71,204.133 C 280.67,202.08 287.906,200.784 292.586,199.849 C 297.015,198.985 300.614,199.993 303.53,199.129 C 306.446,198.12 310.406,195.78 309.722,194.196 C 308.785,192.432 302.81,190.669 298.598,189.444 C 294.205,188.293 286.358,188.328 284.234,187.068 C 282.146,185.664 286.79,182.244 285.926,181.092 C 284.81,179.904 281.57,180.012 278.438,179.904 C 275.306,179.652 270.734,179.616 267.494,179.652 C 264.182,179.616 259.358,180.624 258.71,179.904 C 257.99,179.005 263.57,176.448 263.21,175.152 C 262.67,173.892 260.618,172.236 255.939,172.524 C 251.079,172.812 241.035,174.288 235.13,176.556 C 229.334,178.644 224.691,183.504 221.198,185.16 C 217.598,186.6 215.618,186.961 214.142,186.097 C 212.665,185.124 213.242,180.157 212.413,180.372 C 211.441,180.589 210.829,184.62 208.777,187.753 C 206.581,190.776 202.981,194.664 199.777,198.984 C 196.609,203.304 193.945,209.244 189.697,213.492 C 185.233,217.633 176.773,222.348 173.605,223.753 C 170.401,224.977 169.249,223.824 170.833,221.124 C 172.489,218.209 177.277,213.276 182.821,207.301 C 188.113,201.217 199.489,189.697 202.765,185.377 C 205.788,180.948 201.613,182.713 201.901,181.345 C 202.153,179.905 202.513,179.328 204.493,177.277 C 206.365,175.189 211.837,171.625 213.277,168.925 C 214.573,166.116 211.549,163.021 212.413,160.609 C 213.277,157.981 217.309,155.75 217.993,153.913 C 218.461,152.077 216.445,150.277 215.401,149.881 C 214.105,149.377 211.657,152.041 211.117,151.069 C 210.541,149.917 211.297,145.849 212.413,143.437 C 213.529,140.989 215.617,139.837 217.561,136.525 C 219.397,132.925 223.069,126.085 223.573,123.241 C 223.933,120.469 220.585,122.305 220.333,120.145 C 220.081,117.769 221.701,113.053 222.277,109.885 C 222.709,106.645 224.437,100.741 223.141,101.317 C 221.737,101.929 216.769,110.533 213.925,113.233 C 210.973,115.717 207.805,115.213 205.969,116.581 C 204.133,117.877 203.989,118.237 202.765,120.865 C 201.397,123.349 200.821,129.145 198.265,131.594 C 195.565,133.97 189.049,136.49 187.321,135.41 C 185.629,134.15 189.229,125.114 187.969,124.682 C 186.492,124.286 181.525,129.722 178.752,132.782 C 175.836,135.662 173.244,140.918 170.832,142.322 C 168.456,143.582 165.612,139.442 164.389,141.134 C 163.021,142.826 163.777,146.822 162.912,152.546 C 161.832,158.234 160.32,168.818 158.808,174.975 C 157.26,181.059 155.711,185.199 153.875,188.799 C 151.967,192.219 149.951,194.523 147.683,195.711 L 147.683,195.711 C 149.087,178.862 150.131,163.311 150.671,148.514 C 151.211,133.61 151.283,120.146 150.887,107.294 L 150.887,107.294 C 154.271,111.182 158.159,113.774 162.696,114.674 C 167.196,115.538 172.812,114.926 177.888,112.982 C 182.892,110.966 189.84,106.934 192.468,102.974 C 194.772,98.87 194.375,93.038 192.684,88.934 C 190.955,84.83 187.572,81.338 182.388,78.458 L 182.388,78.458 C 185.196,78.638 187.932,77.414 190.992,74.642 C 193.944,71.798 198.264,66.938 200.208,62.006 C 202.152,56.966 202.98,49.946 202.549,44.834 C 201.828,39.65 200.496,33.602 196.752,31.262 C 192.864,28.886 185.196,29.246 180.265,30.542 C 175.369,31.838 171.336,34.646 167.628,38.426 C 163.813,41.954 160.5,46.526 157.549,51.998 L 157.549,51.998 C 158.88,47.498 159.385,42.314 159.061,36.446 C 158.737,30.47 157.836,22.442 155.389,16.682 C 152.724,10.706 148.152,4.478 143.616,1.886 C 138.864,-0.67 132.276,-0.526 128.172,1.886 C 124.068,4.262 121.26,9.626 119.604,16.178 C 117.948,22.657 117.516,30.794 118.308,40.73 L 118.308,40.73 C 114.708,37.274 110.352,34.61 104.808,32.882 C 99.192,31.082 90.228,28.778 85.296,30.002 C 80.364,31.046 75.144,34.358 75.468,39.542 C 75.576,44.798 83.028,55.238 86.592,60.998 C 90.156,66.542 93.144,69.998 96.672,73.166 C 100.092,76.334 103.548,78.458 107.184,79.826 L 107.184,79.826 C 98.796,83.786 93.288,88.106 90.66,92.93 C 88.032,97.682 88.248,104.09 91.308,108.41 C 94.332,112.586 103.584,115.718 108.228,118.202 C 112.656,120.614 114.528,122.378 117.876,122.954 C 121.08,123.35 123.6,122.774 127.524,120.83 C 131.484,118.814 135.876,115.682 141.24,111.29 L 141.24,111.29 C 141.816,123.998 142.032,136.706 141.888,149.954 C 141.744,163.166 141.132,176.234 140.196,189.986 L 140.196,189.986 C 138.504,187.574 137.28,184.658 136.524,181.382 C 135.732,177.89 136.632,171.913 135.48,169.97 C 134.184,168.134 130.512,171.913 129.036,170.186 C 127.56,168.134 127.704,161.366 126.264,158.774 C 124.536,156.218 120.756,155.066 119.388,155.173 C 118.02,155.209 118.704,158.882 118.092,159.241 C 117.444,159.565 116.58,159.745 115.104,156.865 C 113.412,153.841 110.496,144.229 108.444,141.349 C 106.356,138.361 104.16,139.477 102.684,139.441 C 101.136,139.405 101.028,142.609 99.444,141.133 C 97.644,139.477 94.692,132.385 92.82,130.405 C 90.912,128.497 89.004,128.317 88.752,129.433 C 88.572,130.477 92.46,135.517 91.524,136.345 C 90.372,136.993 85.728,134.797 82.308,133.501 C 78.852,132.097 75.648,129.973 71.148,128.245 C 66.468,126.337 58.548,123.349 54.876,123.025 C 51.096,122.809 48.864,124.393 49.296,126.805 C 49.8,129.037 56.748,134.617 57.648,136.597 C 58.332,138.325 52.968,137.029 53.796,138.253 C 54.516,139.477 61.068,142.789 62.364,144.445 C 63.516,145.957 60.996,146.605 61.32,148.045 C 61.68,149.413 62.616,151.537 64.524,153.049 C 66.324,154.525 71.76,155.75 72.228,156.865 C 72.66,157.802 68.628,158.521 67.08,159.457 C 65.388,160.43 62.292,160.897 62.364,162.806 C 62.328,164.642 63.84,166.91 67.296,170.438 C 70.752,173.966 80.184,180.554 82.956,183.794 C 85.512,186.854 81.804,186.926 82.956,189.014 C 84.072,191.066 86.592,193.369 89.4,195.926 C 92.1,198.266 97.212,201.289 99.048,203.342 C 100.704,205.249 98.04,206.006 99.66,207.842 C 101.352,209.606 104.556,210.829 108.876,214.285 C 113.052,217.705 121.764,224.941 124.752,228.506 C 127.488,232.033 127.02,234.806 126.264,235.418 C 125.436,235.957 124.356,234.913 120.252,231.602 C 116.004,228.11 105.276,218.246 101.388,215.186 C 97.5,212.125 99.12,214.898 97.104,213.494 C 94.944,211.982 91.092,209.175 88.752,206.582 C 86.304,203.883 84.324,198.482 82.956,197.763 C 81.516,197.078 81.516,202.803 80.184,202.299 C 78.672,201.614 76.188,196.286 74.388,193.946 C 72.48,191.463 70.716,188.978 69.24,188.007 C 67.8,187.034 66.864,188.87 65.604,188.259 C 64.272,187.538 64.092,185.523 61.32,183.723 C 58.368,181.779 52.5,179.547 48.432,177.027 C 44.364,174.327 40.08,170.367 37.092,168.459 C 33.852,166.48 30.288,164.211 30,165.831 C 29.82,167.523 34.716,175.371 35.796,178.251 C 36.804,180.915 37.272,181.636 35.796,182.067 C 34.14,182.427 29.82,181.023 26.148,180.627 C 22.296,180.088 17.76,179.367 13.512,179.439 C 9.3,179.403 2.928,179.871 1.056,180.843 C -0.96,181.779 0.3,183.038 1.92,185.162 C 3.468,187.179 8.472,190.31 10.704,193.011 C 12.936,195.603 12.396,198.519 15.204,200.643 C 17.976,202.622 23.412,203.235 26.796,205.395 C 30.108,207.519 34.176,210.615 34.716,213.279 C 34.968,215.836 31.332,218.571 29.352,220.659 C 27.336,222.603 24.42,223.539 23.376,225.411 C 22.224,227.283 22.08,230.127 22.944,231.603 C 23.736,232.863 25.104,232.899 28.308,233.511 C 31.44,234.051 35.94,234.662 41.808,235.202 L 41.808,235.202 C 38.748,238.011 38.532,239.919 41.16,240.927 C 43.752,241.899 51.852,240.998 57.252,241.143 C 62.544,241.107 67.98,240.819 72.876,241.395 C 77.628,241.935 81.984,243.051 85.944,244.743 L 85.944,244.743 C 81.66,247.804 79.5,250.504 79.32,252.844 C 79.176,255.112 81.408,257.812 84.9,258.568 C 88.284,259.144 95.376,256.696 99.66,256.66 C 103.908,256.553 105.996,256.876 110.388,258.064 C 114.744,259.144 120.936,260.944 125.616,263.32 C 130.26,265.516 134.148,268.324 137.82,271.6 L 137.82,271.6 L 137.82,303.28 L 137.82,303.28 C 141.098,303.418 144.374,303.562 147.686,303.741 L 147.686,303.741 z " style="fill-rule:evenodd;stroke:#000000;stroke-width:0.036;stroke-miterlimit:10" id="path7"/>
	<path d="M 139.55,270.874 L 145.13,271.594 L 145.13,271.594 C 145.31,276.382 145.454,281.098 145.562,286.138 C 145.67,291.07 145.742,296.146 145.778,301.366 L 145.778,301.366 C 145.058,301.222 144.194,301.15 143.186,301.15 C 142.178,301.15 140.99,301.222 139.766,301.366 L 139.766,301.366 C 139.694,291.214 139.622,281.062 139.55,270.874 L 139.55,270.874 z " style="fill:#00c200;fill-rule:evenodd;stroke:#000000;stroke-width:0.036;stroke-miterlimit:10" id="path9"/>
	<path d="M 143.402,267.777 C 139.478,266.481 135.266,265.077 130.766,263.025 C 126.194,260.937 120.218,257.301 116.186,255.861 C 112.01,254.385 109.994,254.458 106.106,254.422 C 102.11,254.386 96.458,255.033 93.038,255.394 C 89.618,255.502 87.71,255.898 85.946,255.61 C 84.074,255.251 82.49,254.674 82.31,253.486 C 82.058,252.118 83.426,250.03 84.902,248.482 C 86.342,246.97 88.358,245.746 91.094,244.667 L 91.094,244.667 C 87.962,242.795 84.47,241.57 80.618,240.599 C 76.658,239.662 72.806,239.375 67.946,239.195 C 62.942,239.015 55.67,239.159 51.674,239.195 C 47.786,239.159 45.842,239.123 44.582,238.691 C 43.25,238.007 43.61,236.783 43.718,235.847 C 43.718,234.983 44.078,234.191 44.798,233.471 L 44.798,233.471 C 39.974,233.147 36.05,232.715 33.026,232.031 C 29.858,231.239 27.122,230.735 26.366,229.403 C 25.61,227.927 26.654,226.235 28.526,223.931 C 30.398,221.627 35.798,218.135 37.094,215.831 C 38.246,213.49 37.418,211.799 35.582,209.639 C 33.53,207.335 28.814,204.023 25.718,202.475 C 22.586,200.746 19.526,201.719 17.366,199.991 C 15.17,198.084 14.378,193.907 12.65,191.891 C 10.814,189.803 8.51,189.695 6.854,188.075 C 5.198,186.275 2.174,183.216 2.786,182.099 C 3.29,181.091 5.702,181.523 9.878,181.847 C 13.91,182.099 21.938,182.675 27.014,183.286 C 31.982,183.719 38.03,185.23 39.866,184.474 C 41.486,183.537 38.318,180.55 37.31,178.282 C 36.266,175.906 33.71,171.875 34.106,170.902 C 34.394,169.966 36.77,170.722 39.434,172.342 C 42.098,173.818 45.95,177.526 49.73,179.722 C 53.33,181.738 58.694,183.358 61.106,184.978 C 63.302,186.67 62.258,187.966 63.662,189.262 C 65.03,190.306 68.126,190.126 69.89,191.638 C 71.582,193.258 72.482,195.67 74.39,198.298 C 76.226,200.674 79.754,205.426 81.23,206.182 C 82.598,206.794 82.13,202.15 83.174,202.366 C 84.146,202.618 85.622,205.211 87.458,207.37 C 89.294,209.494 91.886,212.698 94.118,214.499 C 96.17,216.083 98.006,215.543 100.31,216.91 C 102.542,218.207 104.918,219.574 107.834,222.131 C 110.714,224.543 114.53,229.114 117.482,231.671 C 120.398,234.083 122.846,236.746 124.97,237.143 C 126.986,237.503 128.786,235.595 129.254,234.047 C 129.542,232.391 129.29,230.303 127.13,227.639 C 124.826,224.867 120.398,221.591 116.186,218.099 C 111.938,214.571 104.45,209.315 102.038,206.903 C 99.554,204.455 102.47,204.815 101.606,203.555 C 100.634,202.187 99.266,201.143 96.674,199.019 C 93.902,196.787 87.782,192.863 85.946,190.451 C 84.146,188.004 86.666,186.059 86.162,184.475 C 85.514,182.783 85.406,182.963 82.526,180.443 C 79.538,177.743 71.582,171.803 68.81,168.995 C 66.002,166.187 65.462,165.035 65.822,163.739 C 66.074,162.407 68.99,161.651 70.538,160.643 C 72.014,159.455 73.49,158.231 74.822,156.827 L 74.822,156.827 C 73.13,155.639 71.294,154.271 69.458,152.867 C 67.514,151.355 64.562,149.807 63.662,148.079 C 62.834,146.279 65.138,144.083 64.31,142.607 C 63.158,140.987 58.55,140.015 57.866,139.259 C 57.218,138.539 60.998,139.331 60.89,138.323 C 60.674,137.135 58.766,134.939 57.254,132.851 C 55.598,130.763 52.07,127.379 51.674,126.155 C 51.35,124.895 52.034,124.715 55.094,125.219 C 58.046,125.579 64.706,127.091 69.242,128.783 C 73.742,130.547 78.026,133.391 81.662,135.227 C 85.082,136.811 88.106,138.647 90.05,138.791 C 91.85,138.791 92.246,136.451 93.038,135.947 C 93.794,135.443 94.046,135.119 94.766,135.947 C 95.342,136.667 95.954,139.043 96.89,140.447 C 97.862,141.851 99.05,143.471 100.31,143.795 C 101.426,143.867 102.578,141.419 103.766,141.167 C 104.738,140.699 105.638,140.483 106.754,141.887 C 107.906,143.255 109.238,146.927 110.606,149.987 C 111.866,152.975 113.198,157.836 114.458,159.995 C 115.61,161.939 116.69,162.731 117.698,162.371 C 118.598,161.939 119.174,158.447 120.254,157.871 C 121.226,157.26 122.81,157.619 123.89,158.808 C 124.862,159.924 125.654,162.588 126.266,165 C 126.698,167.376 126.014,171.623 127.13,172.884 C 128.282,173.928 131.846,171.264 133.106,171.696 C 134.15,172.129 133.862,173.532 134.186,175.512 C 134.402,177.384 134.438,180.012 135.266,183.108 C 136.166,186.169 137.426,189.696 139.334,193.837 L 139.334,193.837 C 138.686,195.889 138.326,199.921 138.254,205.933 C 138.182,211.981 138.398,219.793 138.902,229.765 L 138.902,229.765 C 134.726,219.973 130.226,210.649 124.97,201.109 C 119.606,191.569 113.126,181.201 107.618,173.21 C 102.11,165.182 98.546,159.745 92.606,153.445 C 86.522,146.965 73.382,136.345 71.798,135.337 C 70.286,134.437 78.17,142.069 83.39,147.973 C 88.466,153.733 97.25,163.489 102.254,169.897 C 107.114,176.161 109.346,179.761 112.982,185.845 C 116.582,191.893 119.858,197.941 124.322,206.365 C 128.714,214.861 133.79,224.51 139.55,236.137 L 139.55,236.137 C 139.694,236.748 139.694,238.045 139.55,240.421 C 139.334,242.725 138.974,245.857 138.47,249.961 L 138.47,249.961 C 129.65,248.16 122.126,245.857 115.754,243.049 C 109.346,240.061 105.818,236.748 100.31,232.824 C 94.622,228.864 88.25,223.932 82.31,219.684 C 76.334,215.328 71.15,210.504 64.958,207.3 C 58.55,204.06 46.67,201.216 45.014,200.856 C 43.466,200.424 51.458,203.34 55.526,205.176 C 59.414,206.94 63.302,208.236 68.594,211.836 C 73.742,215.363 79.682,220.907 86.81,226.38 C 93.938,231.816 104.882,240.06 111.038,244.02 C 116.978,247.728 117.986,247.404 122.81,249.024 C 127.562,250.68 133.214,252.012 139.766,253.56 L 139.766,253.56 C 142.25,255.684 146.57,258.168 153.266,261.3 C 159.927,264.36 169.395,269.039 179.187,272.028 C 188.763,274.872 199.922,276.348 210.723,278.688 C 221.523,280.992 234.807,284.484 243.483,285.816 C 252.015,286.968 261.663,286.501 261.735,286.068 C 261.591,285.636 251.295,284.736 243.087,283.224 C 234.735,281.568 221.739,278.364 212.415,276.528 C 203.092,274.585 196.611,274.476 187.539,272.028 C 178.323,269.436 165.003,264.72 157.983,261.768 C 150.962,258.816 146.93,256.404 145.742,254.388 L 145.742,254.388 C 147.578,252.408 151.79,249.564 158.811,245.568 C 165.759,241.464 177.999,234.984 187.323,230.556 C 196.539,226.128 201.975,224.508 213.927,219.324 C 225.95,213.961 256.263,200.461 258.494,199.093 C 260.366,197.833 237.29,206.689 225.914,211.225 C 214.502,215.617 200.894,220.765 190.778,225.301 C 180.626,229.765 172.346,234.301 165.254,237.937 C 158.055,241.573 152.474,244.381 148.118,246.757 L 148.118,246.757 L 147.902,237.217 L 147.902,237.217 C 154.454,227.532 159.855,217.849 164.391,207.769 C 168.819,197.653 171.411,185.269 174.687,177.025 C 177.819,168.673 179.979,164.065 183.687,158.197 C 187.359,152.221 195.891,143.833 197.187,141.78 C 198.411,139.692 194.523,141.816 191.21,145.812 C 187.719,149.736 180.734,158.16 177.063,165.108 C 173.391,171.948 171.555,179.833 169.323,186.816 C 166.947,193.62 166.947,199.02 163.347,206.364 C 159.675,213.673 154.706,221.808 147.902,230.772 L 147.902,230.772 C 147.686,226.056 147.614,222.06 147.686,218.64 C 147.65,215.148 148.118,213.708 148.118,210.287 C 148.118,206.796 147.974,202.871 147.686,198.119 L 147.686,198.119 C 150.35,197.975 152.726,196.212 154.957,192.539 C 157.154,188.832 159.134,182.315 160.753,176.34 C 162.193,170.22 163.31,162.084 163.957,156.792 C 164.605,151.499 164.065,146.927 164.821,144.875 C 165.433,142.715 166.765,144.227 167.845,144.155 C 168.889,144.047 169.284,145.415 170.832,144.371 C 172.236,143.147 174,139.979 176.412,137.351 C 178.752,134.615 183.504,129.035 184.98,128.531 C 186.312,128.135 183.9,132.815 184.548,134.507 C 185.052,136.091 186.239,137.855 188.4,137.855 C 190.56,137.675 195.132,135.299 197.4,133.787 C 199.488,132.167 200.1,130.871 201.468,128.531 C 202.8,126.047 203.844,121.367 205.572,119.495 C 207.192,117.587 209.316,118.523 211.116,117.587 C 212.772,116.579 214.392,115.355 215.832,113.771 C 217.272,112.043 219.036,107.867 219.721,108.047 C 220.117,108.263 219.433,112.691 219.073,114.959 C 218.713,117.155 217.309,119.243 217.777,120.935 C 218.029,122.447 221.161,122.231 221.197,124.031 C 221.125,125.759 219.685,128.495 217.993,131.411 C 216.157,134.291 212.449,137.423 210.901,140.951 C 209.317,144.335 208.561,149.663 208.777,151.679 C 209.029,153.587 211.045,152.327 212.197,152.615 C 213.277,152.759 215.293,152.219 215.185,153.083 C 214.933,154.019 211.765,155.567 211.117,157.871 C 210.325,160.067 211.477,163.991 211.117,166.187 C 210.758,168.167 210.829,168.131 208.993,170.255 C 206.977,172.415 201.218,176.698 199.777,179.074 C 198.337,181.27 200.497,182.53 200.425,183.826 C 200.244,185.051 200.964,183.791 198.696,186.707 C 196.176,189.587 190.524,196.282 186.06,201.251 C 181.488,206.11 175.152,211.87 171.912,216.011 C 168.564,220.043 166.476,223.823 166.765,225.551 C 167.053,227.242 170.149,227.675 173.821,226.271 C 177.421,224.687 184.477,220.439 188.617,216.731 C 192.613,212.879 195.313,207.839 198.265,204.095 C 201.073,200.351 203.773,197.399 205.969,194.555 C 208.128,191.603 210.036,189.083 211.549,186.707 L 211.549,186.707 C 211.404,188.11 212.053,188.902 213.492,189.083 C 214.86,189.154 217.02,188.65 220.116,187.427 C 223.212,186.131 228.072,183.215 231.925,181.45 C 235.597,179.543 238.656,177.598 242.221,176.446 C 245.712,175.15 249.817,174.61 252.733,174.286 C 255.504,173.927 258.565,173.639 259.141,174.538 C 259.573,175.438 256.441,178.354 256.153,179.543 C 255.865,180.551 255.757,180.91 257.629,181.198 C 259.501,181.379 263.102,181.054 267.062,181.198 C 270.877,181.234 277.862,181.127 280.381,181.702 C 282.793,182.207 281.461,183.251 281.642,184.295 C 281.749,185.267 279.806,186.707 281.209,187.643 C 282.541,188.399 286.357,188.723 289.598,189.299 C 292.694,189.767 297.554,190.415 300.289,191.242 C 303.098,192.215 305.185,193.547 305.869,194.555 C 306.302,195.311 305.869,195.815 303.313,196.211 C 300.541,196.427 295.069,195.815 290.245,196.715 C 285.313,197.614 278.329,199.954 274.585,201.935 C 270.77,203.807 269.005,206.327 267.926,208.127 C 266.846,209.818 266.594,211.187 268.142,212.662 C 269.69,214.066 273.793,215.146 276.709,216.73 C 279.518,218.207 284.485,220.654 284.665,221.734 C 284.665,222.634 280.669,222.707 277.142,222.922 C 273.47,223.029 267.602,222.274 263.426,223.174 C 259.285,224.11 255.974,227.134 252.518,228.646 C 248.917,230.086 246.253,231.49 242.438,231.742 C 238.514,231.85 234.518,231.131 229.766,229.583 L 229.766,229.583 C 230.846,231.526 231.566,233.183 231.926,234.839 C 232.285,236.53 233.402,238.007 231.926,239.122 C 230.342,239.95 224.654,239.734 222.493,240.562 C 220.225,241.39 221.305,243.406 218.641,244.126 C 215.796,244.737 211.441,244.449 206.401,244.378 C 201.325,244.197 193.153,243.226 188.833,243.405 C 184.514,243.477 183.722,243.838 180.481,245.313 C 176.953,246.825 170.473,250.425 168.673,252.225 C 166.981,253.881 168.853,254.493 169.969,255.321 C 170.868,256.077 171.588,256.582 174.469,256.977 C 177.313,257.337 183.181,257.733 186.925,257.481 C 190.597,257.013 193.189,255.861 196.357,254.853 C 199.489,253.701 203.737,251.613 205.357,251.505 C 206.653,251.397 204.637,253.017 205.141,254.133 C 205.609,255.105 206.149,257.049 208.561,257.481 C 210.865,257.769 214.393,257.193 219.289,256.293 C 224.113,255.249 233.545,252.585 237.722,251.757 C 241.682,250.784 243.158,250.353 243.698,251.036 C 244.166,251.721 240.998,254.78 241.142,256.041 C 241.286,257.192 242.222,257.48 244.346,258.417 C 246.398,259.244 249.35,260.757 253.346,261.297 C 257.27,261.693 264.001,261.368 268.142,261.297 C 272.246,261.152 275.917,260.289 277.789,260.793 C 279.445,261.297 278.689,262.736 278.437,264.141 C 278.113,265.401 276.817,267.021 276.097,268.425 C 275.341,269.757 274.62,270.908 273.937,272.025 C 272.929,272.998 271.309,273.141 271.165,274.401 C 271.058,275.589 271.094,277.965 273.505,279.153 C 275.81,280.126 281.318,280.126 285.314,280.809 C 289.274,281.493 294.746,282.249 297.302,283.221 C 299.785,283.977 301.657,284.877 300.289,286.065 C 298.741,287.145 292.441,288.945 288.733,290.349 C 284.989,291.681 281.857,293.265 278.221,294.417 C 274.513,295.461 270.66,296.253 266.664,296.793 L 266.664,296.793 C 268.104,298.089 269.436,299.492 270.517,300.86 C 271.633,302.228 273.901,304.352 273.288,305.144 C 272.532,305.756 268.681,305.432 266.017,305.144 C 263.208,304.748 259.681,303.92 256.801,303.236 C 253.92,302.48 251.544,301.184 248.845,300.86 C 246,300.284 241.357,299.745 240.061,300.608 C 238.765,301.581 240.673,304.784 240.925,306.333 C 240.996,307.665 241.572,308.673 240.708,308.961 C 239.772,309.177 239.88,309.32 235.345,307.736 C 230.593,306.008 219.973,302.228 213.061,299.169 C 206.113,296.072 199.92,292.868 194.197,289.413 L 194.197,289.413 C 194.161,291.104 193.873,292.4 193.333,293.444 C 192.758,294.452 193.226,296.253 190.993,295.352 C 188.653,294.164 183.685,290.708 179.833,287.504 C 175.873,284.3 172.021,279.619 167.846,276.775 C 163.598,274.004 159.026,271.987 154.957,270.584 C 150.854,268.966 147.002,268.21 143.402,267.777 L 143.402,267.777 z " style="fill:#00c200;fill-rule:evenodd;stroke:#000000;stroke-width:0.036;stroke-miterlimit:10" id="path11"/>
	<path d="M 131.81,56.997 C 130.118,55.989 128.39,54.765 126.482,53.181 C 124.466,51.525 121.766,49.113 120.47,47.457 C 119.174,45.693 118.67,44.181 118.958,42.921 L 118.958,42.921 C 115.394,40.221 111.326,38.133 106.754,36.513 C 102.002,34.785 95.738,33.489 91.31,33.165 C 86.918,32.769 82.742,33.165 80.582,34.353 C 78.278,35.397 77.594,36.549 78.242,39.609 C 78.89,42.669 82.454,48.429 84.65,52.461 C 86.81,56.313 87.134,58.509 91.31,62.937 C 95.486,67.365 101.426,72.441 109.526,78.705 L 109.526,78.705 C 109.814,78.417 111.29,77.985 113.81,77.265 C 116.366,76.545 119.966,75.537 124.754,74.385 L 124.754,74.385 C 124.574,71.505 125.078,68.697 126.266,65.817 C 127.454,62.865 129.254,60.021 131.81,56.997 L 131.81,56.997 z " style="fill:#fbffd6;fill-rule:evenodd;stroke:#000000;stroke-width:0.036;stroke-miterlimit:10" id="path13"/>
	<path d="M 126.266,76.761 C 127.454,78.165 128.678,79.389 130.334,80.829 C 131.882,82.233 133.394,83.781 135.698,84.897 C 137.93,85.833 140.522,86.517 143.618,86.805 L 143.618,86.805 C 145.526,90.189 146.066,93.501 145.526,97.029 C 144.914,100.557 142.466,104.337 139.982,107.541 C 137.354,110.637 133.682,113.121 130.334,115.389 C 126.806,117.513 122.558,119.961 119.822,120.393 C 117.086,120.609 116.726,118.737 114.458,117.549 C 112.082,116.289 109.346,115.029 106.106,113.481 C 102.758,111.861 97.286,110.709 94.946,108.477 C 92.498,106.209 92.174,102.825 92.174,100.125 C 92.138,97.317 92.678,94.545 95.162,91.809 C 97.538,88.929 101.534,85.689 106.754,83.205 C 112.01,80.721 118.382,78.525 126.266,76.761 L 126.266,76.761 z " style="fill:#fbffd6;fill-rule:evenodd;stroke:#000000;stroke-width:0.036;stroke-miterlimit:10" id="path15"/>
	<path d="M 147.47,87.741 C 147.974,88.065 148.19,89.469 148.118,91.809 C 147.974,94.113 147.542,97.497 146.822,101.817 L 146.822,101.817 C 149.306,103.761 152.042,105.453 155.175,107.037 C 158.235,108.549 161.403,110.745 165.254,111.105 C 168.998,111.357 173.607,110.241 177.71,108.729 C 181.635,107.145 187.286,104.805 189.267,101.565 C 191.139,98.181 190.887,92.313 189.483,88.677 C 187.935,84.897 184.011,81.657 180.483,79.641 C 176.811,77.625 172.095,77.445 168.279,76.761 C 164.427,75.969 160.971,75.465 157.767,75.105 L 157.767,75.105 C 157.263,77.337 156.327,79.389 154.562,81.549 C 152.762,83.637 150.53,85.653 147.47,87.741 L 147.47,87.741 z " style="fill:#fbffd6;fill-rule:evenodd;stroke:#000000;stroke-width:0.036;stroke-miterlimit:10" id="path17"/>
	<path d="M 156.902,72.009 C 159.926,72.405 162.842,73.017 166.334,73.449 C 169.719,73.845 173.895,74.601 177.063,74.889 C 179.943,75.033 181.527,76.329 184.334,74.889 C 187.286,73.341 191.643,69.633 194.198,66.285 C 196.538,62.865 197.942,59.373 198.698,54.837 C 199.274,50.121 199.778,42.453 198.266,38.637 C 196.61,34.785 193.262,32.517 189.482,31.977 C 185.594,31.401 179.87,32.985 175.766,35.325 C 171.589,37.449 168.53,41.157 165.037,45.333 C 161.437,49.545 158.306,54.405 154.956,60.345 L 154.956,60.345 C 156.037,61.713 156.757,63.333 157.117,65.349 C 157.406,67.329 157.334,69.453 156.902,72.009 L 156.902,72.009 z " style="fill:#fbffd6;fill-rule:evenodd;stroke:#000000;stroke-width:0.036;stroke-miterlimit:10" id="path19"/>
	<path d="M 151.97,57.429 C 153.482,56.169 154.67,53.037 155.391,47.889 C 156.111,42.597 157.586,32.985 156.471,26.685 C 155.246,20.277 151.358,14.409 148.118,10.485 C 144.662,6.453 140.198,4.113 136.526,3.321 C 132.818,2.529 129.002,2.925 126.482,6.165 C 123.818,9.405 122.378,17.289 121.334,22.617 C 120.326,27.909 120.038,33.561 120.47,37.629 C 120.758,41.553 121.154,43.173 123.458,46.233 C 125.69,49.185 129.146,52.281 133.97,55.521 L 133.97,55.521 C 137.498,53.397 140.486,52.569 143.618,52.893 C 146.534,53.181 149.45,54.693 151.97,57.429 L 151.97,57.429 z " style="fill:#fbffd6;fill-rule:evenodd;stroke:#000000;stroke-width:0.036;stroke-miterlimit:10" id="path21"/>
	<path d="M 133.538,60.273 C 131.558,61.929 130.334,62.901 129.47,65.277 C 128.462,67.653 126.986,71.037 127.958,73.881 C 129.038,76.473 132.494,79.533 135.266,81.261 C 137.858,82.881 141.098,83.961 143.618,84.105 C 145.994,84.249 147.83,83.565 149.81,82.197 C 151.754,80.649 154.382,78.237 155.175,75.537 C 155.895,72.657 154.85,68.733 154.13,65.997 C 153.302,63.297 152.33,61.245 150.242,59.553 C 148.046,57.753 143.942,55.341 141.242,55.521 C 138.434,55.557 135.446,58.617 133.538,60.273 L 133.538,60.273 z " style="fill:#f3ec63;fill-rule:evenodd;stroke:#000000;stroke-width:0.036;stroke-miterlimit:10" id="path23"/>
	<path d="M 142.97,252.657 L 146.606,249.057 L 146.606,249.057 C 145.778,236.349 145.346,224.793 145.31,213.561 C 145.274,202.33 145.778,191.601 146.39,182.349 C 146.858,173.025 148.082,166.113 148.55,158.013 C 148.946,149.876 148.91,142.316 148.982,133.784 C 148.982,125.144 148.838,116.18 148.55,106.604 L 148.55,106.604 L 146.39,104.696 L 142.754,109.7 L 142.754,109.7 C 143.294,117.44 143.582,126.728 143.618,137.852 C 143.582,148.976 143.294,165.068 142.754,175.977 C 142.178,186.741 140.702,194.877 140.414,202.185 C 139.982,209.349 140.666,213.345 140.81,219.033 C 140.954,224.758 141.494,230.445 141.458,235.953 C 141.278,241.245 140.99,246.25 140.198,250.966 L 140.198,250.966 C 141.098,251.506 142.034,252.082 142.97,252.657 L 142.97,252.657 z " style="fill:#00c200;fill-rule:evenodd;stroke:#000000;stroke-width:0.036;stroke-miterlimit:10" id="path25"/>
</g>
<metadata><rdf:RDF><cc:Work><dc:format>image/svg+xml</dc:format><dc:type rdf:resource="http://purl.org/dc/dcmitype/StillImage"/><cc:license rdf:resource="http://creativecommons.org/licenses/publicdomain/"/><dc:publisher><cc:Agent rdf:about="http://openclipart.org/"><dc:title>Open Clip Art Library</dc:title></cc:Agent></dc:publisher><dc:title>GG anemone canadensis</dc:title><dc:date>2006-09-21T08:23:33</dc:date><dc:description>Colored anemone flower.</dc:description><dc:source>http://openclipart.org/detail/184/gg-anemone-canadensis-by-gerald_g</dc:source><dc:creator><cc:Agent><dc:title>Gerald_G</dc:title></cc:Agent></dc:creator><dc:subject><rdf:Bag><rdf:li>anemone</rdf:li><rdf:li>clip art</rdf:li><rdf:li>clipart</rdf:li><rdf:li>flower</rdf:li><rdf:li>nature</rdf:li><rdf:li>outline</rdf:li><rdf:li>plant</rdf:li></rdf:Bag></dc:subject></cc:Work><cc:License rdf:about="http://creativecommons.org/licenses/publicdomain/"><cc:permits rdf:resource="http://creativecommons.org/ns#Reproduction"/><cc:permits rdf:resource="http://creativecommons.org/ns#Distribution"/><cc:permits rdf:resource="http://creativecommons.org/ns#DerivativeWorks"/></cc:License></rdf:RDF></metadata></svg>
